Coordinates
version=1
nRows=13
nColumns=38
inDegrees=no

Units are S.I. units (second, meters, Newtons, ...)
If the header above contains a line with 'inDegrees', this indicates whether rotational values are in degrees (yes) or radians (no).

endheader
time	pelvis_tilt	pelvis_list	pelvis_rotation	pelvis_tx	pelvis_ty	pelvis_tz	hip_flexion_r	hip_adduction_r	hip_rotation_r	knee_angle_r	ankle_angle_r	subtalar_angle_r	mtp_angle_r	hip_flexion_l	hip_adduction_l	hip_rotation_l	knee_angle_l	ankle_angle_l	subtalar_angle_l	mtp_angle_l	lumbar_extension	lumbar_bending	lumbar_rotation	arm_flex_r	arm_add_r	arm_rot_r	elbow_flex_r	pro_sup_r	wrist_flex_r	wrist_dev_r	arm_flex_l	arm_add_l	arm_rot_l	elbow_flex_l	pro_sup_l	wrist_flex_l	wrist_dev_l
0	-2.90735	1.46523	1.0154	0.85984	2.04933	0.994213	0.0554677	-0.0225158	0.232225	0.914487	-0.497706	0	0	0.388674	-0.149308	-0.698132	0.419798	-0.000175377	0	0	-0.329961	-0.0583056	0.152811	-0.0523709	-0.483866	0.439121	0.844167	0.809352	0	0	-0.333029	-0.392508	-0.285786	0.803609	1.22758	0	0
0.01	2.55473	1.45814	1.83305	0.858996	2.03821	1.00086	0.0875822	-0.140376	0.256439	0.881753	-0.531305	0	0	0.380112	-0.0208513	-0.59993	0.346574	-0.0334809	0	0	-0.302101	-0.154796	0.146115	-0.0413807	-0.429959	0.414245	0.772975	0.84215	0	0	-0.294694	-0.433867	-0.243054	0.766124	1.22187	0	0
0.02	2.62521	1.46542	1.77287	0.860315	2.02662	0.999946	0.111666	-0.134413	0.261225	0.923064	-0.510761	0	0	0.360986	-0.0202705	-0.598528	0.33875	-0.0149554	0	0	-0.310406	-0.136872	0.131375	-0.0454531	-0.460637	0.434525	0.813019	0.800847	0	0	-0.308912	-0.434214	-0.254098	0.795083	1.22722	0	0
0.03	0.204693	1.51765	-1.85895	0.889982	2.0279	1.01642	-0.0809409	-0.151353	-0.0122414	0.906418	-0.502622	0	0	0.215814	0.0858063	-0.198604	0.301516	-0.0374229	0	0	-0.571076	-0.00447251	-0.0917736	-0.0185242	-0.536389	0.382094	0.987196	0.782604	0	0	-0.270928	-0.446373	-0.251013	0.897265	1.18711	0	0
0.04	0.175905	1.50531	-1.82064	0.890405	2.01544	1.01917	-0.0788255	-0.156828	-0.0271716	0.95226	-0.418682	0	0	0.184487	0.0883382	-0.203082	0.29194	-0.0349962	0	0	-0.580277	0.00342249	-0.100332	-0.0245265	-0.544598	0.375336	0.998897	0.784754	0	0	-0.266338	-0.457022	-0.238695	0.900215	1.18523	0	0
0.05	0.742234	1.51004	-2.44186	0.880946	1.99864	1.02088	-0.0116159	-0.180125	0.0490711	0.977952	-0.379274	0	0	0.181808	0.0946181	-0.324425	0.274495	-0.046525	0	0	-0.53197	-0.0598148	-0.0654714	-0.0259976	-0.514393	0.381736	0.943714	0.809478	0	0	-0.265083	-0.472976	-0.226801	0.868691	1.1948	0	0
0.06	0.644025	1.50778	-2.32667	0.882306	1.98712	1.02375	0.00377386	-0.179046	0.0325013	1.0057	-0.336099	0	0	0.159867	0.0968771	-0.308322	0.266709	-0.0476425	0	0	-0.537537	-0.0438026	-0.0793134	-0.0286592	-0.520395	0.373395	0.950889	0.824469	0	0	-0.256397	-0.480201	-0.218115	0.869027	1.19711	0	0
0.07	0.549116	1.50995	-2.22705	0.88202	1.9745	1.02601	0.023036	-0.172523	0.0181859	1.04526	-0.260456	0	0	0.138931	0.0904886	-0.318558	0.257015	-0.0459828	0	0	-0.534552	-0.0307579	-0.0762199	-0.0405221	-0.525148	0.356431	0.956962	0.840931	0	0	-0.244632	-0.486611	-0.203149	0.863306	1.20088	0	0
0.08	0.61685	1.48472	-2.29218	0.881131	1.963	1.0334	0.0272022	-0.193506	0.0108255	1.04512	-0.22769	0	0	0.0924512	0.114181	-0.304037	0.221057	-0.0732588	0	0	-0.553118	-0.047265	-0.0840671	-0.0340289	-0.513237	0.345878	0.940196	0.859496	0	0	-0.219036	-0.501996	-0.183098	0.84802	1.2008	0	0
0.09	0.299163	1.51059	-1.96744	0.881539	1.95061	1.03126	0.0689432	-0.158002	-0.00039123	1.0801	-0.176789	0	0	0.0947665	0.0793643	-0.317663	0.23701	-0.0416403	0	0	-0.535593	0.00213875	-0.0450814	-0.104735	-0.52167	0.242277	0.99142	0.932822	0	0	-0.183109	-0.51012	-0.113977	0.834356	1.17786	0	0
0.1	-0.299435	1.47804	-1.29943	0.891814	1.94402	1.03501	0.0456674	-0.123803	-0.0775892	1.0621	-0.171593	0	0	0.0538077	0.049357	-0.204675	0.241291	-0.0241528	0	0	-0.58831	0.0975136	-0.0788205	-0.114226	-0.56807	0.227296	1.05693	0.915789	0	0	-0.164362	-0.502888	-0.115431	0.866491	1.18165	0	0
0.11	0.0472171	1.51036	-1.70503	0.881221	1.92761	1.03626	0.120627	-0.143961	-0.0133358	1.07966	-0.138662	0	0	0.0550435	0.0669174	-0.312437	0.216541	-0.0392045	0	0	-0.535897	0.028984	-0.0433521	-0.109699	-0.53698	0.241894	0.997963	0.926748	0	0	-0.161452	-0.515765	-0.108759	0.837306	1.19427	0	0
0.12	-0.42334	1.46674	-1.16537	0.891294	1.92078	1.03953	0.0855488	-0.111798	-0.113281	1.0496	-0.115337	0	0	0.0125968	0.0313438	-0.207002	0.223532	-0.0202759	0	0	-0.589575	0.125346	-0.0719238	-0.129958	-0.579782	0.20971	1.06945	0.919366	0	0	-0.139302	-0.511931	-0.0984338	0.86975	1.19054	0	0
